<svg xmlns="http://www.w3.org/2000/svg" version="1.1" xmlns:xlink="http://www.w3.org/1999/xlink" xmlns:svgjs="http://svgjs.com/svgjs" width="512" height="512" x="0" y="0" viewBox="0 0 64 64" style="enable-background:new 0 0 512 512" xml:space="preserve" class=""><g><g id="Gamepad_Joystick" data-name="Gamepad / Joystick"><path d="m45 43a1 1 0 0 0 0 2 1 1 0 0 0 0-2zm5 5a1 1 0 0 0 0 2 1 1 0 0 0 0-2zm0-10a1 1 0 0 0 0 2 1 1 0 0 0 0-2zm5 5a1 1 0 0 0 0 2 1 1 0 0 0 0-2z" fill="#ccd3eb" data-original="#ccd3eb"></path><path d="m22 44a2 2 0 0 1 -2 2h-3c0 3.27.15 3.69-.59 4.41a2 2 0 0 1 -3.41-1.41v-3h-3a2 2 0 0 1 0-4h3v-3a2 2 0 0 1 4 0v3h3a2 2 0 0 1 2 2z" fill="#0074ff" data-original="#0074ff"></path><path d="m49 57a12.66 12.66 0 0 1 -10.25-5h-13.51a13 13 0 1 1 -10.24-21h22c12 0 15.39-.75 19.85 2.65 9.88 7.45 4.61 23.35-7.85 23.35z" fill="#96a1c3" data-original="#96a1c3"></path><path d="m56.85 33.65c-4.74-3.65-5.85-2.65-41.85-2.65a13 13 0 0 0 -10.35 20.85 13 13 0 0 0 18.09-2.35h13.52c7.28 9.64 23.24 4.47 23.24-8a12.92 12.92 0 0 0 -2.65-7.85z" fill="#ccd3eb" data-original="#ccd3eb"></path><path d="m20 42h-3v-3a2 2 0 0 0 -4 0v3h-3a2 2 0 0 0 0 4h3v3a2 2 0 0 0 4 0v-3h3a2 2 0 0 0 0-4z" fill="#0074ff" data-original="#0074ff"></path><path d="m37 31v2a2 2 0 0 1 -2 2h-6a2 2 0 0 1 -2-2v-2z" fill="#96a1c3" data-original="#96a1c3"></path><path d="m41 29v2h-18v-2a2 2 0 0 1 2-2h14a2 2 0 0 1 2 2z" fill="#647499" data-original="#647499"></path><g fill="#033c59"><path d="m56.54 32.21a1 1 0 0 0 -1.08 1.68c10.05 6.43 5.54 22.11-6.46 22.11a12.19 12.19 0 0 1 -9.65-4.78 1.14 1.14 0 0 0 -.59-.22c-14.45 0-13.63 0-14 .11s-.52.63-1.49 1.54a12 12 0 1 1 -8.27-20.65h11v1a3 3 0 0 0 3 3h6a3 3 0 0 0 3-3v-1h9a1 1 0 0 0 0-2h-5v-1a3 3 0 0 0 -3-3h-6v-.5a3.5 3.5 0 0 0 -3.5-3.5h-2a1.5 1.5 0 0 1 0-3h7a3.5 3.5 0 0 0 3.5-3.5v-1a3.5 3.5 0 0 0 -3.5-3.5 1.5 1.5 0 0 1 -1.5-1.5v-2.5a1 1 0 0 0 -2 0v2.5a3.5 3.5 0 0 0 3.5 3.5 1.5 1.5 0 0 1 1.5 1.5v1a1.5 1.5 0 0 1 -1.5 1.5h-7a3.5 3.5 0 0 0 0 7h2a1.5 1.5 0 0 1 1.5 1.5v.5h-6a3 3 0 0 0 -3 3v1h-7a14 14 0 0 0 -14 14c0 13.12 16.46 18.92 24.71 9h12.58c8.28 10 24.71 4 24.71-9a14 14 0 0 0 -6.46-11.79zm-20.54.79a1 1 0 0 1 -1 1h-6a1 1 0 0 1 -1-1v-1h8zm-12-4a1 1 0 0 1 1-1h14a1 1 0 0 1 1 1v1h-16z" fill="#033c59" data-original="#033c59"></path><path d="m50.83 32.14a10.61 10.61 0 0 1 1.53.34 1 1 0 0 0 .6-1.9 12.07 12.07 0 0 0 -1.81-.42 1 1 0 0 0 -.32 1.98z" fill="#033c59" data-original="#033c59"></path><path d="m15 52a3 3 0 0 0 3-3v-2h2a3 3 0 0 0 0-6h-2v-2a3 3 0 0 0 -6 0v2h-2a3 3 0 0 0 -2.13 5.11c1.06 1.09 2.13.89 4.13.89v2a3 3 0 0 0 3 3zm-5-7a1 1 0 0 1 0-2h3a1 1 0 0 0 1-1v-3a1 1 0 0 1 2 0v3a1 1 0 0 0 1 1h3a1 1 0 0 1 0 2h-3a1 1 0 0 0 -1 1v3a1 1 0 0 1 -2 0v-3a1 1 0 0 0 -1-1z" fill="#033c59" data-original="#033c59"></path></g></g><g id="Camera_Mirrorless_DSLR_" fill="#0074ff" data-name="Camera (Mirrorless/ DSLR)"><circle cx="50" cy="39" r="2" fill="#0074ff" data-original="#0074ff"></circle><circle cx="50" cy="49" r="2" fill="#0074ff" data-original="#0074ff"></circle><circle cx="55" cy="44" r="2" fill="#0074ff" data-original="#0074ff"></circle><circle cx="45" cy="44" r="2" fill="#0074ff" data-original="#0074ff"></circle></g></g></svg>
